<?xml version="1.0" encoding="utf-8"?>
<svg xmlns="http://www.w3.org/2000/svg" width="64" height="64" viewBox="0 0 64 64" role="img" aria-labelledby="title desc">
  <title id="title">大富豪アイコン</title>
  <desc id="desc">緑の背景に白いカードとハート・スペードのスートを配したアイコン</desc>

  <!-- 背景 -->
  <rect width="64" height="64" rx="10" ry="10" fill="#0b704f"/>

  <!-- カード（白） -->
  <g transform="translate(8,6)">
    <rect x="0" y="0" width="48" height="52" rx="6" ry="6" fill="#ffffff" stroke="#e6e6e6" stroke-width="1"/>
    <!-- 左上ハート（パス） -->
    <g transform="translate(6,8) scale(1)">
      <path d="M6 2 C6 -1 11 -1 11 2 C11 6 6 9 6 11 C6 9 1 6 1 2 C1 -1 6 -1 6 2 Z" fill="#d32f2f"/>
    </g>
    <!-- 右上スペード（パス + 柄） -->
    <g transform="translate(34,8) scale(1)">
      <path d="M6 0 C3 -1 0 2 3 6 L6 9 L9 6 C12 2 9 -1 6 0 Z" fill="#111111"/>
      <rect x="5" y="9" width="2" height="6" rx="1" fill="#111111"/>
    </g>
    <!-- 中央の小さなカード感を出すための装飾（円） -->
    <circle cx="24" cy="34" r="8" fill="none" stroke="#111111" stroke-width="1" opacity="0.12" />
  </g>
</svg>
